<mxfile host="Electron" modified="2023-12-01T18:41:23.569Z" agent="Mozilla/5.0 (Windows NT 10.0; Win64; x64) AppleWebKit/537.36 (KHTML, like Gecko) draw.io/22.1.2 Chrome/114.0.5735.289 Electron/25.9.4 Safari/537.36" etag="ebLzIlr_-X55UtmwJSj6" version="22.1.2" type="device">
  <diagram name="PÃ¡gina-1" id="1naj_lO46jhSrpNQx8SU">
    <mxGraphModel dx="1178" dy="790" grid="1" gridSize="10" guides="1" tooltips="1" connect="1" arrows="1" fold="1" page="1" pageScale="1" pageWidth="827" pageHeight="1169" math="0" shadow="0">
      <root>
        <mxCell id="0" />
        <mxCell id="1" parent="0" />
        <mxCell id="xud5iXsjGnso0-Vp6BYW-1" value="" style="rounded=0;whiteSpace=wrap;html=1;" vertex="1" parent="1">
          <mxGeometry x="40" y="328" width="1070" height="70" as="geometry" />
        </mxCell>
        <mxCell id="xud5iXsjGnso0-Vp6BYW-2" value="" style="rounded=0;whiteSpace=wrap;html=1;fillColor=#f5f5f5;strokeColor=#666666;gradientColor=#b3b3b3;fontColor=#000000;" vertex="1" parent="1">
          <mxGeometry x="40" y="328" width="120" height="70" as="geometry" />
        </mxCell>
        <mxCell id="xud5iXsjGnso0-Vp6BYW-3" value="" style="rounded=0;whiteSpace=wrap;html=1;fillColor=#f5f5f5;gradientColor=#b3b3b3;strokeColor=#666666;" vertex="1" parent="1">
          <mxGeometry x="160" y="328" width="120" height="70" as="geometry" />
        </mxCell>
        <mxCell id="xud5iXsjGnso0-Vp6BYW-4" value="" style="rounded=0;whiteSpace=wrap;html=1;fillColor=#f5f5f5;gradientColor=#b3b3b3;strokeColor=#666666;" vertex="1" parent="1">
          <mxGeometry x="280" y="328" width="120" height="70" as="geometry" />
        </mxCell>
        <mxCell id="xud5iXsjGnso0-Vp6BYW-5" value="" style="rounded=0;whiteSpace=wrap;html=1;fillColor=#f5f5f5;gradientColor=#b3b3b3;strokeColor=#666666;" vertex="1" parent="1">
          <mxGeometry x="400" y="328" width="120" height="70" as="geometry" />
        </mxCell>
        <mxCell id="xud5iXsjGnso0-Vp6BYW-6" value="" style="rounded=0;whiteSpace=wrap;html=1;fillColor=#fad7ac;strokeColor=#b46504;" vertex="1" parent="1">
          <mxGeometry x="510" y="328" width="120" height="70" as="geometry" />
        </mxCell>
        <mxCell id="xud5iXsjGnso0-Vp6BYW-7" value="" style="rounded=0;whiteSpace=wrap;html=1;fillColor=#fad7ac;strokeColor=#b46504;" vertex="1" parent="1">
          <mxGeometry x="630" y="328" width="120" height="70" as="geometry" />
        </mxCell>
        <mxCell id="xud5iXsjGnso0-Vp6BYW-8" value="" style="rounded=0;whiteSpace=wrap;html=1;fillColor=#f5f5f5;gradientColor=#b3b3b3;strokeColor=#666666;" vertex="1" parent="1">
          <mxGeometry x="750" y="328" width="120" height="70" as="geometry" />
        </mxCell>
        <mxCell id="xud5iXsjGnso0-Vp6BYW-9" value="" style="rounded=0;whiteSpace=wrap;html=1;fillColor=#f5f5f5;gradientColor=#b3b3b3;strokeColor=#666666;" vertex="1" parent="1">
          <mxGeometry x="870" y="328" width="120" height="70" as="geometry" />
        </mxCell>
        <mxCell id="xud5iXsjGnso0-Vp6BYW-11" value="" style="endArrow=none;html=1;rounded=0;strokeWidth=4;fillColor=#fad7ac;strokeColor=#b46504;" edge="1" parent="1">
          <mxGeometry width="50" height="50" relative="1" as="geometry">
            <mxPoint x="360" y="528" as="sourcePoint" />
            <mxPoint x="511" y="398" as="targetPoint" />
          </mxGeometry>
        </mxCell>
        <mxCell id="xud5iXsjGnso0-Vp6BYW-12" value="PREAMBULO" style="text;html=1;strokeColor=none;fillColor=none;align=center;verticalAlign=middle;whiteSpace=wrap;rounded=0;fontSize=16;fontStyle=1;fontColor=#000000;" vertex="1" parent="1">
          <mxGeometry x="45" y="348" width="110" height="30" as="geometry" />
        </mxCell>
        <mxCell id="xud5iXsjGnso0-Vp6BYW-13" value="SFD" style="text;html=1;strokeColor=none;fillColor=none;align=center;verticalAlign=middle;whiteSpace=wrap;rounded=0;fontSize=16;fontStyle=1;fontColor=#000000;" vertex="1" parent="1">
          <mxGeometry x="165" y="348" width="110" height="30" as="geometry" />
        </mxCell>
        <mxCell id="xud5iXsjGnso0-Vp6BYW-14" value="" style="rounded=0;whiteSpace=wrap;html=1;fillColor=#f5f5f5;gradientColor=#b3b3b3;strokeColor=#666666;" vertex="1" parent="1">
          <mxGeometry x="990" y="328" width="120" height="70" as="geometry" />
        </mxCell>
        <mxCell id="xud5iXsjGnso0-Vp6BYW-15" value="MAC DESTINO" style="text;html=1;strokeColor=none;fillColor=none;align=center;verticalAlign=middle;whiteSpace=wrap;rounded=0;fontSize=16;fontStyle=1;fontColor=#000000;" vertex="1" parent="1">
          <mxGeometry x="285" y="348" width="110" height="30" as="geometry" />
        </mxCell>
        <mxCell id="xud5iXsjGnso0-Vp6BYW-16" value="MAC ORIGEM" style="text;html=1;strokeColor=none;fillColor=none;align=center;verticalAlign=middle;whiteSpace=wrap;rounded=0;fontSize=16;fontStyle=1;fontColor=#000000;" vertex="1" parent="1">
          <mxGeometry x="401" y="348" width="110" height="30" as="geometry" />
        </mxCell>
        <mxCell id="xud5iXsjGnso0-Vp6BYW-17" value="TPID&lt;br&gt;2 BYTES" style="text;html=1;strokeColor=none;fillColor=none;align=center;verticalAlign=middle;whiteSpace=wrap;rounded=0;fontSize=16;fontStyle=1;fontColor=#000000;" vertex="1" parent="1">
          <mxGeometry x="517" y="348" width="110" height="30" as="geometry" />
        </mxCell>
        <mxCell id="xud5iXsjGnso0-Vp6BYW-18" value="TCI&lt;br&gt;2 BYTES" style="text;html=1;strokeColor=none;fillColor=none;align=center;verticalAlign=middle;whiteSpace=wrap;rounded=0;fontSize=16;fontStyle=1;fontColor=#000000;" vertex="1" parent="1">
          <mxGeometry x="635" y="348" width="110" height="30" as="geometry" />
        </mxCell>
        <mxCell id="xud5iXsjGnso0-Vp6BYW-19" value="PT" style="text;html=1;strokeColor=none;fillColor=none;align=center;verticalAlign=middle;whiteSpace=wrap;rounded=0;fontSize=16;fontStyle=1;fontColor=#000000;" vertex="1" parent="1">
          <mxGeometry x="755" y="348" width="110" height="30" as="geometry" />
        </mxCell>
        <mxCell id="xud5iXsjGnso0-Vp6BYW-20" value="DATA" style="text;html=1;strokeColor=none;fillColor=none;align=center;verticalAlign=middle;whiteSpace=wrap;rounded=0;fontSize=16;fontStyle=1;fontColor=#000000;" vertex="1" parent="1">
          <mxGeometry x="875" y="348" width="110" height="30" as="geometry" />
        </mxCell>
        <mxCell id="xud5iXsjGnso0-Vp6BYW-21" value="FCS" style="text;html=1;strokeColor=none;fillColor=none;align=center;verticalAlign=middle;whiteSpace=wrap;rounded=0;fontSize=16;fontStyle=1;fontColor=#000000;" vertex="1" parent="1">
          <mxGeometry x="995" y="348" width="110" height="30" as="geometry" />
        </mxCell>
        <mxCell id="xud5iXsjGnso0-Vp6BYW-23" value="" style="endArrow=none;html=1;rounded=0;strokeWidth=4;fillColor=#fad7ac;strokeColor=#b46504;" edge="1" parent="1">
          <mxGeometry width="50" height="50" relative="1" as="geometry">
            <mxPoint x="1120" y="528" as="sourcePoint" />
            <mxPoint x="750" y="398" as="targetPoint" />
          </mxGeometry>
        </mxCell>
        <mxCell id="xud5iXsjGnso0-Vp6BYW-25" value="" style="rounded=0;whiteSpace=wrap;html=1;" vertex="1" parent="1">
          <mxGeometry x="354" y="528" width="766" height="70" as="geometry" />
        </mxCell>
        <mxCell id="xud5iXsjGnso0-Vp6BYW-26" value="" style="rounded=0;whiteSpace=wrap;html=1;fillColor=#fad7ac;strokeColor=#b46504;" vertex="1" parent="1">
          <mxGeometry x="354" y="528" width="120" height="70" as="geometry" />
        </mxCell>
        <mxCell id="xud5iXsjGnso0-Vp6BYW-27" value="" style="rounded=0;whiteSpace=wrap;html=1;fillColor=#f5f5f5;strokeColor=#666666;gradientColor=#b3b3b3;fontColor=#000000;" vertex="1" parent="1">
          <mxGeometry x="473" y="528" width="120" height="70" as="geometry" />
        </mxCell>
        <mxCell id="xud5iXsjGnso0-Vp6BYW-28" value="" style="rounded=0;whiteSpace=wrap;html=1;fillColor=#f5f5f5;strokeColor=#666666;gradientColor=#b3b3b3;fontColor=#000000;" vertex="1" parent="1">
          <mxGeometry x="593" y="528" width="527" height="70" as="geometry" />
        </mxCell>
        <mxCell id="xud5iXsjGnso0-Vp6BYW-29" value="PCP" style="text;html=1;strokeColor=none;fillColor=none;align=center;verticalAlign=middle;whiteSpace=wrap;rounded=0;fontSize=16;fontStyle=1;fontColor=#000000;" vertex="1" parent="1">
          <mxGeometry x="354" y="548" width="110" height="30" as="geometry" />
        </mxCell>
        <mxCell id="xud5iXsjGnso0-Vp6BYW-30" value="DEI" style="text;html=1;strokeColor=none;fillColor=none;align=center;verticalAlign=middle;whiteSpace=wrap;rounded=0;fontSize=16;fontStyle=1;fontColor=#000000;" vertex="1" parent="1">
          <mxGeometry x="479" y="548" width="110" height="30" as="geometry" />
        </mxCell>
        <mxCell id="xud5iXsjGnso0-Vp6BYW-31" value="VID" style="text;html=1;strokeColor=none;fillColor=none;align=center;verticalAlign=middle;whiteSpace=wrap;rounded=0;fontSize=16;fontStyle=1;fontColor=#000000;" vertex="1" parent="1">
          <mxGeometry x="770" y="548" width="110" height="30" as="geometry" />
        </mxCell>
        <mxCell id="xud5iXsjGnso0-Vp6BYW-32" value="3 bits" style="text;html=1;strokeColor=none;fillColor=none;align=center;verticalAlign=middle;whiteSpace=wrap;rounded=0;fontSize=16;fontStyle=1;fontColor=#fafafa;" vertex="1" parent="1">
          <mxGeometry x="354" y="608" width="110" height="30" as="geometry" />
        </mxCell>
        <mxCell id="xud5iXsjGnso0-Vp6BYW-33" value="1 bit" style="text;html=1;strokeColor=none;fillColor=none;align=center;verticalAlign=middle;whiteSpace=wrap;rounded=0;fontSize=16;fontStyle=1;fontColor=#fafafa;" vertex="1" parent="1">
          <mxGeometry x="483" y="608" width="110" height="30" as="geometry" />
        </mxCell>
        <mxCell id="xud5iXsjGnso0-Vp6BYW-34" value="12 bits" style="text;html=1;strokeColor=none;fillColor=none;align=center;verticalAlign=middle;whiteSpace=wrap;rounded=0;fontSize=16;fontStyle=1;fontColor=#fafafa;" vertex="1" parent="1">
          <mxGeometry x="770" y="608" width="110" height="30" as="geometry" />
        </mxCell>
        <mxCell id="xud5iXsjGnso0-Vp6BYW-35" value="Campo de 3 bits 802.1 P utilizado para CoS" style="text;html=1;align=center;verticalAlign=middle;whiteSpace=wrap;rounded=0;fontSize=16;fontStyle=1;fontColor=#FFB570;" vertex="1" parent="1">
          <mxGeometry x="10" y="558" width="330" height="30" as="geometry" />
        </mxCell>
        <mxCell id="xud5iXsjGnso0-Vp6BYW-36" value="" style="rounded=0;whiteSpace=wrap;html=1;" vertex="1" parent="1">
          <mxGeometry x="230" y="122" width="837" height="65" as="geometry" />
        </mxCell>
        <mxCell id="xud5iXsjGnso0-Vp6BYW-37" value="" style="rounded=0;whiteSpace=wrap;html=1;fillColor=#f5f5f5;strokeColor=#666666;gradientColor=#b3b3b3;fontColor=#000000;" vertex="1" parent="1">
          <mxGeometry x="231" y="120" width="120" height="70" as="geometry" />
        </mxCell>
        <mxCell id="xud5iXsjGnso0-Vp6BYW-38" value="PREAMBULO" style="text;html=1;strokeColor=none;fillColor=none;align=center;verticalAlign=middle;whiteSpace=wrap;rounded=0;fontSize=16;fontStyle=1;fontColor=#000000;" vertex="1" parent="1">
          <mxGeometry x="232" y="140" width="110" height="30" as="geometry" />
        </mxCell>
        <mxCell id="xud5iXsjGnso0-Vp6BYW-39" value="" style="rounded=0;whiteSpace=wrap;html=1;fillColor=#f5f5f5;gradientColor=#b3b3b3;strokeColor=#666666;" vertex="1" parent="1">
          <mxGeometry x="351" y="120" width="120" height="70" as="geometry" />
        </mxCell>
        <mxCell id="xud5iXsjGnso0-Vp6BYW-40" value="" style="rounded=0;whiteSpace=wrap;html=1;fillColor=#f5f5f5;gradientColor=#b3b3b3;strokeColor=#666666;" vertex="1" parent="1">
          <mxGeometry x="471" y="120" width="120" height="70" as="geometry" />
        </mxCell>
        <mxCell id="xud5iXsjGnso0-Vp6BYW-41" value="" style="rounded=0;whiteSpace=wrap;html=1;fillColor=#f5f5f5;gradientColor=#b3b3b3;strokeColor=#666666;" vertex="1" parent="1">
          <mxGeometry x="591" y="120" width="120" height="70" as="geometry" />
        </mxCell>
        <mxCell id="xud5iXsjGnso0-Vp6BYW-42" value="" style="rounded=0;whiteSpace=wrap;html=1;fillColor=#f5f5f5;gradientColor=#b3b3b3;strokeColor=#666666;" vertex="1" parent="1">
          <mxGeometry x="711" y="120" width="120" height="70" as="geometry" />
        </mxCell>
        <mxCell id="xud5iXsjGnso0-Vp6BYW-43" value="SFD" style="text;html=1;strokeColor=none;fillColor=none;align=center;verticalAlign=middle;whiteSpace=wrap;rounded=0;fontSize=16;fontStyle=1;fontColor=#000000;" vertex="1" parent="1">
          <mxGeometry x="362" y="139.5" width="110" height="30" as="geometry" />
        </mxCell>
        <mxCell id="xud5iXsjGnso0-Vp6BYW-44" value="MAC DESTINO" style="text;html=1;strokeColor=none;fillColor=none;align=center;verticalAlign=middle;whiteSpace=wrap;rounded=0;fontSize=16;fontStyle=1;fontColor=#000000;" vertex="1" parent="1">
          <mxGeometry x="478" y="139.5" width="110" height="30" as="geometry" />
        </mxCell>
        <mxCell id="xud5iXsjGnso0-Vp6BYW-45" value="MAC ORIGEM" style="text;html=1;strokeColor=none;fillColor=none;align=center;verticalAlign=middle;whiteSpace=wrap;rounded=0;fontSize=16;fontStyle=1;fontColor=#000000;" vertex="1" parent="1">
          <mxGeometry x="600" y="140" width="110" height="30" as="geometry" />
        </mxCell>
        <mxCell id="xud5iXsjGnso0-Vp6BYW-48" value="PT" style="text;html=1;strokeColor=none;fillColor=none;align=center;verticalAlign=middle;whiteSpace=wrap;rounded=0;fontSize=16;fontStyle=1;fontColor=#000000;" vertex="1" parent="1">
          <mxGeometry x="719" y="140" width="110" height="30" as="geometry" />
        </mxCell>
        <mxCell id="xud5iXsjGnso0-Vp6BYW-49" value="" style="rounded=0;whiteSpace=wrap;html=1;fillColor=#f5f5f5;gradientColor=#b3b3b3;strokeColor=#666666;" vertex="1" parent="1">
          <mxGeometry x="831" y="120" width="120" height="70" as="geometry" />
        </mxCell>
        <mxCell id="xud5iXsjGnso0-Vp6BYW-50" value="DATA" style="text;html=1;strokeColor=none;fillColor=none;align=center;verticalAlign=middle;whiteSpace=wrap;rounded=0;fontSize=16;fontStyle=1;fontColor=#000000;" vertex="1" parent="1">
          <mxGeometry x="836" y="140" width="110" height="30" as="geometry" />
        </mxCell>
        <mxCell id="xud5iXsjGnso0-Vp6BYW-51" value="" style="rounded=0;whiteSpace=wrap;html=1;fillColor=#f5f5f5;gradientColor=#b3b3b3;strokeColor=#666666;" vertex="1" parent="1">
          <mxGeometry x="950" y="120" width="120" height="70" as="geometry" />
        </mxCell>
        <mxCell id="xud5iXsjGnso0-Vp6BYW-52" value="FCS" style="text;html=1;strokeColor=none;fillColor=none;align=center;verticalAlign=middle;whiteSpace=wrap;rounded=0;fontSize=16;fontStyle=1;fontColor=#000000;" vertex="1" parent="1">
          <mxGeometry x="950" y="139.5" width="110" height="30" as="geometry" />
        </mxCell>
        <mxCell id="xud5iXsjGnso0-Vp6BYW-54" value="" style="endArrow=none;html=1;rounded=0;strokeWidth=4;fillColor=#fad7ac;strokeColor=#b46504;exitX=0;exitY=0;exitDx=0;exitDy=0;" edge="1" parent="1" source="xud5iXsjGnso0-Vp6BYW-6">
          <mxGeometry width="50" height="50" relative="1" as="geometry">
            <mxPoint x="559" y="320" as="sourcePoint" />
            <mxPoint x="710" y="190" as="targetPoint" />
          </mxGeometry>
        </mxCell>
        <mxCell id="xud5iXsjGnso0-Vp6BYW-55" value="" style="endArrow=none;html=1;rounded=0;strokeWidth=4;fillColor=#fad7ac;strokeColor=#b46504;exitX=1;exitY=0;exitDx=0;exitDy=0;entryX=0;entryY=1;entryDx=0;entryDy=0;" edge="1" parent="1" source="xud5iXsjGnso0-Vp6BYW-7" target="xud5iXsjGnso0-Vp6BYW-42">
          <mxGeometry width="50" height="50" relative="1" as="geometry">
            <mxPoint x="520" y="338" as="sourcePoint" />
            <mxPoint x="720" y="200" as="targetPoint" />
          </mxGeometry>
        </mxCell>
        <mxCell id="xud5iXsjGnso0-Vp6BYW-56" value="FRAME ETHERNET" style="text;html=1;align=center;verticalAlign=middle;whiteSpace=wrap;rounded=0;fontSize=16;fontStyle=1;fontColor=#FFB570;" vertex="1" parent="1">
          <mxGeometry x="232" y="70" width="168" height="30" as="geometry" />
        </mxCell>
        <mxCell id="xud5iXsjGnso0-Vp6BYW-57" value="802.1Q" style="text;html=1;align=center;verticalAlign=middle;whiteSpace=wrap;rounded=0;fontSize=16;fontStyle=1;fontColor=#FFB570;" vertex="1" parent="1">
          <mxGeometry x="40" y="280" width="70" height="30" as="geometry" />
        </mxCell>
      </root>
    </mxGraphModel>
  </diagram>
</mxfile>
